{"title":"Family Guy S14E07 1080p WEB-DL DD5.1 H264-CtrlHD[rartv]","uid":13022611,"size":848098957,"categoryP":"video","categoryS":"hd___tv_shows","magnet":"?xt=urn:btih:67a5b6147b01d69a05c5ca11195ed265213b401f&amp;dn=Family+Guy+S14E07+1080p+WEB-DL+DD5.1+H264-CtrlHD%5Brartv%5D&amp;tr=udp%3A%2F%2Ftracker.leechers-paradise.org%3A6969&amp;tr=udp%3A%2F%2Fzer0day.ch%3A1337&amp;tr=udp%3A%2F%2Fopen.demonii.com%3A1337&amp;tr=udp%3A%2F%2Ftracker.coppersurfer.tk%3A6969&amp;tr=udp%3A%2F%2Fexodus.desync.com%3A6969","seeders":1,"leechers":0,"uploader":"cheerfulcaca","files":3,"time":1450369871,"description":"FAMILY GUY, SEASON 14, EPISODE 7 &quot;HOT POCKET-DIAL&quot; SYNOPSIS:\r\n\r\nQuagmire finally confesses his love for Lois, but it happens while he accidentally pocket dials Peter, who is furious, so Brian tries to fix the situation.\r\n\r\n\r\nSERIES INFO:\r\n\r\n8.3/10·IMDb\r\n8.9/10·TV.com\r\n\r\nSick, twisted and politically incorrect, the animated series features the adventures of the Griffin family. Endearingly ignorant Peter and his stay-at-home wife Lois reside in Quahog, R.I., and have three kids. Meg, the eldest child, is a social outcast, and teenage Chris is awkward and clueless when it comes to the opposite sex. The youngest, Stewie, is a genius baby bent on killing his mother and destroying the world. The talking dog, Brian, keeps Stewie in check while sipping martinis and sorting through his own life issues.\r\n\r\n\r\nMEDIA INFO:\r\n\r\nGeneral:\r\n\r\nUnique ID                                : 200116575126480476731688996565322360076 (0x968D0CE9AA001A3684EBDF58838CE50C)\r\nComplete name                            : Family.Guy.S14E07.Hot.Pocket-Dial.1080p.WEB-DL.DD5.1.H.264-CtrlHD.mkv\r\nFormat                                   : Matroska\r\nFormat version                           : Version 4 / Version 2\r\nFile size                                : 809 MiB\r\nDuration                                 : 21mn 34s\r\nOverall bit rate                         : 5 239 Kbps\r\nEncoded date                             : UTC 2015-11-28 15:41:04\r\nWriting application                      : mkvmerge v8.5.2 ('Crosses') 64bit\r\nWriting library                          : libebml v1.3.3 + libmatroska v1.4.4\r\nAttachements                             : small_cover.jpg / cover.jpg / cover_land.jpg / small_cover_land.jpg\r\n\r\nVideo:\r\n\r\nID                                       : 1\r\nFormat                                   : AVC\r\nFormat/Info                              : Advanced Video Codec\r\nFormat profile                           :   \r\nFormat settings, CABAC                   : Yes\r\nFormat settings, ReFrames                : 4 frames\r\nCodec ID                                 : V_MPEG4/ISO/AVC\r\nDuration                                 : 21mn 34s\r\nBit rate                                 : 4 853 Kbps\r\nWidth                                    : 1 916 pixels\r\nHeight                                   : 1 076 pixels\r\nDisplay aspect ratio                     : 16:9\r\nFrame rate mode                          : Constant\r\nFrame rate                               : 23.976 (24000/1001) fps\r\nColor space                              : YUV\r\nChroma subsampling                       : 4:2:0\r\nBit depth                                : 8 bits\r\nScan type                                : Progressive\r\nBits/(Pixel*Frame)                       : 0.098\r\nStream size                              : 749 MiB (93%)\r\nLanguage                                 : English\r\nDefault                                  : Yes\r\nForced                                   : No\r\nColor range                              : Limited\r\nColor primaries                          : BT.709\r\nTransfer characteristics                 : BT.709\r\nMatrix coefficients                      : BT.709\r\n\r\nAudio:\r\n\r\nID                                       : 2\r\nFormat                                   : AC-3\r\nFormat/Info                              : Audio Coding 3\r\nMode extension                           : CM (complete main)\r\nFormat settings, Endianness              : Big\r\nCodec ID                                 : A_AC3\r\nDuration                                 : 21mn 34s\r\nBit rate mode                            : Constant\r\nBit rate                                 : 384 Kbps\r\nChannel(s)                               : 6 channels\r\nChannel positions                        : Front: L C R, Side: L R, LFE\r\nSampling rate                            : 48.0 KHz\r\nFrame rate                               : 31.250 fps (1536 spf)\r\nCompression mode                         : Lossy\r\nDelay relative to video                  : 7ms\r\nStream size                              : 59.3 MiB (7%)\r\nLanguage                                 : English\r\nDefault                                  : Yes\r\nForced                                   : No\r\n\r\nText:\r\n\r\nID                                       : 3\r\nFormat                                   : UTF-8\r\nCodec ID                                 : S_TEXT/UTF8\r\nCodec ID/Info                            : UTF-8 Plain Text\r\nDuration                                 : 21mn 33s\r\nBit rate                                 : 112 bps\r\nCount of elements                        : 518\r\nStream size                              : 17.7 KiB (0%)\r\nLanguage                                 : English\r\nDefault                                  : Yes\r\nForced                                   : No\r\n\r\n \nhttps://rarbg.to","torrent":{"xt":"urn:btih:67a5b6147b01d69a05c5ca11195ed265213b401f","amp;dn":"Family+Guy+S14E07+1080p+WEB-DL+DD5.1+H264-CtrlHD%5Brartv%5D","amp;tr":["udp%3A%2F%2Ftracker.leechers-paradise.org%3A6969","udp%3A%2F%2Fzer0day.ch%3A1337","udp%3A%2F%2Fopen.demonii.com%3A1337","udp%3A%2F%2Ftracker.coppersurfer.tk%3A6969","udp%3A%2F%2Fexodus.desync.com%3A6969"],"infoHash":"67a5b6147b01d69a05c5ca11195ed265213b401f","infoHashBuffer":{"type":"Buffer","data":[103,165,182,20,123,1,214,154,5,197,202,17,25,94,210,101,33,59,64,31]},"announce":[],"urlList":[]}}